<svg width="72" height="14" viewBox="0 0 72 14" fill="none" xmlns="http://www.w3.org/2000/svg">
<g id="Group 45">
<path id="Star 1" d="M6.44211 0.558105L7.88845 5.00949H12.5689L8.78234 7.7606L10.2287 12.212L6.44211 9.46088L2.65553 12.212L4.10187 7.7606L0.315299 5.00949H4.99576L6.44211 0.558105Z" fill="#FFE600"/>
<path id="Star 2" d="M21.2211 0.558105L22.5823 5.00949H26.9875L23.4236 7.7606L24.7849 12.212L21.2211 9.46088L17.6572 12.212L19.0185 7.7606L15.4546 5.00949H19.8598L21.2211 0.558105Z" fill="#FFE600"/>
<path id="Star 3" d="M36 0.558105L37.4464 5.00949H42.1268L38.3403 7.7606L39.7866 12.212L36 9.46088L32.2135 12.212L33.6598 7.7606L29.8732 5.00949H34.5537L36 0.558105Z" fill="#FFE600"/>
<path id="Star 4" d="M50.779 0.558105L52.1402 5.00949H56.5454L52.9815 7.7606L54.3428 12.212L50.779 9.46088L47.2151 12.212L48.5764 7.7606L45.0126 5.00949H49.4177L50.779 0.558105Z" fill="#FFE600"/>
<path id="Star 5" d="M65.5579 0.558105L67.0042 5.00949H71.6847L67.8981 7.7606L69.3445 12.212L65.5579 9.46088L61.7713 12.212L63.2177 7.7606L59.4311 5.00949H64.1115L65.5579 0.558105Z" fill="#FFE600"/>
</g>
</svg>
